<?xml version="1.0" encoding="UTF-8" standalone="no" ?>
<!DOCTYPE svg PUBLIC "-//W3C//DTD SVG 1.1//EN" "http://www.w3.org/Graphics/SVG/1.1/DTD/svg11.dtd">
<svg xmlns="http://www.w3.org/2000/svg" xmlns:xlink="http://www.w3.org/1999/xlink" version="1.1" width="1080" height="1080" viewBox="0 0 1080 1080" xml:space="preserve">
<desc>Created with Fabric.js 5.2.4</desc>
<defs>
</defs>
<g transform="matrix(1 0 0 1 540 540)" id="17f38f5d-c316-4b38-ab47-83532ee10bb9"  >
<rect style="stroke: none; stroke-width: 1; stroke-dasharray: none; stroke-linecap: butt; stroke-dashoffset: 0; stroke-linejoin: miter; stroke-miterlimit: 4; fill: rgb(255,255,255); fill-rule: nonzero; opacity: 1; visibility: hidden;" vector-effect="non-scaling-stroke"  x="-540" y="-540" rx="0" ry="0" width="1080" height="1080" />
</g>
<g transform="matrix(1 0 0 1 540 540)" id="d0dc8329-b1c2-4dc6-b6fb-479b9bd3ad0b"  >
</g>
<g transform="matrix(1 0 0 1 270.91 430.17)" id="path14894"  >
<path style="stroke: rgb(49,114,62); stroke-width: 0; stroke-dasharray: none; stroke-linecap: butt; stroke-dashoffset: 0; stroke-linejoin: miter; stroke-miterlimit: 4; fill: rgb(49,114,62); fill-rule: nonzero; opacity: 1;" vector-effect="non-scaling-stroke"  transform=" translate(-600, -600)" d="M 1.422 630.365 C -0.40000000000000013 620.378 0.04899999999999993 611.896 0.04899999999999993 601.5070000000001 L 0.04899999999999993 598.759 C 163.371 584.748 341.28999999999996 543.609 473.714 448.972 C 511.71 466.381 549.077 464.006 584.922 446.224 C 660.0260000000001 522.079 733.729 574.798 832.052 605.629 C 842.119 631.2810000000001 858.138 650.979 880.106 664.72 C 853.563 730.681 816.494 788.856 768.8969999999999 839.241 C 698.5509999999999 788.567 605.6669999999999 825.262 573.9399999999999 898.332 C 353.928 895.948 132.179 799.69 1.422 630.365 z M 572.565 984.905 C 460.25200000000007 1042.91 341.70900000000006 1074.181 221.09100000000007 1067.356 C 127.796 989.072 60.567 886.74 26.135 780.151 C 177.657 910.381 379.047 984.7 572.565 984.905 z M 821.068 968.415 C 948.875 941.756 1066.312 890.365 1161.556 811.7579999999999 C 1036.544 1137.696 660.077 1286.6979999999999 351.5210000000001 1148.434 C 451.6830000000001 1134.002 545.772 1099.4089999999999 626.1090000000002 1053.617 C 706.395 1099.621 801.941 1051.229 821.068 968.415 z M 1057.214 633.113 C 1106.4099999999999 629.4820000000001 1154.3809999999999 625.8620000000001 1200 617.9970000000001 C 1199.911 630.2800000000001 1198.643 642.3710000000001 1198.627 653.7260000000001 C 1112.856 763.4930000000002 983.9309999999999 838.488 855.3919999999999 873.5960000000001 C 903.358 815.3630000000002 938.9369999999999 750.6730000000001 963.8539999999999 685.3320000000001 C 1003.028 680.25 1035.027 662.255 1057.214 633.113 L 1057.214 633.113 z M 1079.182 545.165 C 1073.766 504.431 1053.391 471.36899999999997 1021.518 450.34599999999995 C 1031.59 357.07699999999994 1033.251 266.0709999999999 1025.637 178.25699999999995 C 1121.793 277.52099999999996 1180.02 404.22099999999995 1195.8809999999999 530.049 C 1161.1 537.378 1122.199 542.417 1079.182 545.165 L 1079.182 545.165 z M 410.559 387.133 C 289.275 463.55 147.263 500.671 6.914 512.185 C 41.964 293.143 191.16 112.112 391.337 38.09 C 396.775 109.224 413.247 177.9 439.39099999999996 237.347 C 397.418 279.969 387.45 334.611 410.559 387.133 z M 646.704 285.443 C 709.919 206.95399999999998 762.4739999999999 126.74799999999999 792.236 32.591999999999985 C 843.492 50 889.715 72.444 930.903 99.928 C 945.289 213.111 947.289 325.845 936.394 431.108 C 886.665 439.595 847.571 469.852 830.677 513.558 C 757.261 486.98199999999997 697.163 437.49 643.957 384.384 C 657.321 349.907 657.826 317.59 646.704 285.443 L 646.704 285.443 z M 519.021 204.366 C 493.47599999999994 141.21800000000002 476.80299999999994 80.02600000000001 476.45899999999995 13.354000000000013 C 553.058 -4.268999999999988 635.7549999999999 -3.681999999999988 708.4859999999999 10.606000000000012 C 680.6999999999998 88.39200000000001 636.7979999999999 160.48600000000002 590.4129999999999 219.48200000000003 C 574.092 212.511 534.338 196.983 519.021 204.366 z" stroke-linecap="round" />
</g>
<g transform="matrix(1 0 0 1 1127.02 909.54)" style="" id="8330c835-b141-4744-b8dd-9c95f6ca239b"  >
		<text xml:space="preserve" font-family="Raleway" font-size="105" font-style="normal" font-weight="900" style="stroke: none; stroke-width: 1; stroke-dasharray: none; stroke-linecap: butt; stroke-dashoffset: 0; stroke-linejoin: miter; stroke-miterlimit: 4; fill: rgb(49,114,62); fill-rule: nonzero; opacity: 1; white-space: pre;" ><tspan x="-332.69" y="32.98" >Promptverse</tspan></text>
</g>
</svg>